# xmcd
#
# Track frame offsets: 
#        150
#        11098
#        23820
#        35604
#        45637
#        58433
#        70248
#        83934
#        96172
#        106719
#        117275
#        129229
#        137670
#        147137
#        155775
#        167292
#        177288
#        188131
#        198968
#        209009
#        218459
#        231272
#        241924
#        252272
#        262979
#
# Disc length: 3635 seconds
#
# Revision: 0
# Processed by: cddbd v1.5.2PL0 Copyright (c) Steve Scherf et al.
# Submitted via: ExactAudioCopy v1.0b3
#
DISCID=5f0e3119
DTITLE=George Jones - Purely George Jones
DYEAR=2013
DGENRE=Country
TTITLE0=Tender Years
TTITLE1=Aching, Breaking Heart
TTITLE2=She Sill Thinks I Care
TTITLE3=Why Baby Why?
TTITLE4=What Am I Worth?
TTITLE5=You Gotta Be My Baby
TTITLE6=Family Bible
TTITLE7=Just One More
TTITLE8=Treasure Of Love
TTITLE9=Bubbles In My Beer
TTITLE10=Faded Love
TTITLE11=Roly Poly
TTITLE12=Trouble In Mind
TTITLE13=Take Me Back To Tulsa
TTITLE14=The Warm Red Wine
TTITLE15=I Heard You Crying In Your Sleep
TTITLE16=A House Without Love
TTITLE17=I Could Never Be Ashamed Of You
TTITLE18=You're Gonna Change (Or I'm Gonna Leave)
TTITLE19=If You've Got The Money (I've Got The Time)
TTITLE20=I Love You Because
TTITLE21=Take These Chains From My Heart
TTITLE22=Hey, Good Lookin'
TTITLE23=I Can't Help It (If I'm Still In Love With You)
TTITLE24=Jambalaya
EXTD=
EXTT0=
EXTT1=
EXTT2=
EXTT3=
EXTT4=
EXTT5=
EXTT6=
EXTT7=
EXTT8=
EXTT9=
EXTT10=
EXTT11=
EXTT12=
EXTT13=
EXTT14=
EXTT15=
EXTT16=
EXTT17=
EXTT18=
EXTT19=
EXTT20=
EXTT21=
EXTT22=
EXTT23=
EXTT24=
PLAYORDER=
